<?xml version="1.0" encoding="UTF-8"?>
<svg xmlns="http://www.w3.org/2000/svg" xmlns:xlink="http://www.w3.org/1999/xlink" width="26px" height="26px" viewBox="0 0 26 26" version="1.1">
<g id="surface1">
<rect x="0" y="0" width="26" height="26" style="fill:rgb(100%,100%,100%);fill-opacity:1;stroke:none;"/>
<path style=" stroke:none;fill-rule:nonzero;fill:rgb(25.490196%,76.862745%,90.196078%);fill-opacity:1;" d="M 13 25.878906 C 5.886719 25.878906 0.121094 20.113281 0.121094 13 C 0.121094 5.886719 5.886719 0.121094 13 0.121094 C 20.113281 0.121094 25.878906 5.886719 25.878906 13 C 25.878906 20.113281 20.113281 25.878906 13 25.878906 Z M 15.683594 14.609375 C 14.984375 15.171875 14.433594 15.894531 14.085938 16.722656 C 11.921875 15.769531 10.230469 14.078125 9.269531 11.988281 C 10.105469 11.566406 10.824219 11.015625 11.382812 10.328125 C 11.238281 8.765625 10.433594 7.429688 9.257812 6.570312 C 7.6875 7.140625 6.59375 8.597656 6.558594 10.3125 C 6.679688 15.207031 10.535156 19.164062 15.375 19.4375 C 17.199219 19.417969 18.738281 18.332031 19.425781 16.785156 C 18.570312 15.566406 17.230469 14.761719 15.703125 14.609375 Z M 15.683594 14.609375 "/>
</g>
</svg>
