<?xml version="1.0" encoding="UTF-8"?>
<svg xmlns="http://www.w3.org/2000/svg" xmlns:xlink="http://www.w3.org/1999/xlink" width="26px" height="26px" viewBox="0 0 26 26" version="1.1">
<g id="surface1">
<rect x="0" y="0" width="26" height="26" style="fill:rgb(100%,100%,100%);fill-opacity:1;stroke:none;"/>
<path style=" stroke:none;fill-rule:evenodd;fill:rgb(25.490196%,76.862745%,90.196078%);fill-opacity:1;" d="M 13 0.121094 C 9.585938 0.121094 6.308594 1.476562 3.894531 3.894531 C 1.476562 6.308594 0.121094 9.585938 0.121094 13 C 0.121094 16.414062 1.476562 19.691406 3.894531 22.105469 C 6.308594 24.523438 9.585938 25.878906 13 25.878906 C 16.414062 25.878906 19.691406 24.523438 22.105469 22.105469 C 24.523438 19.691406 25.878906 16.414062 25.878906 13 C 25.878906 9.585938 24.523438 6.308594 22.105469 3.894531 C 19.691406 1.476562 16.414062 0.121094 13 0.121094 Z M 13 4.757812 C 17.546875 4.757812 21.242188 8.453125 21.242188 13 C 21.242188 17.546875 17.546875 21.242188 13 21.242188 C 8.453125 21.242188 4.757812 17.546875 4.757812 13 C 4.757812 8.453125 8.453125 4.757812 13 4.757812 Z M 13 5.789062 C 12.761719 5.789062 12.5 5.910156 12.203125 6.230469 C 11.90625 6.554688 11.601562 7.066406 11.347656 7.722656 C 11.105469 8.339844 10.910156 9.085938 10.765625 9.910156 L 15.234375 9.910156 C 15.089844 9.085938 14.894531 8.339844 14.652344 7.722656 C 14.398438 7.066406 14.09375 6.554688 13.796875 6.230469 C 13.5 5.910156 13.238281 5.789062 13 5.789062 Z M 11.042969 6.0625 C 9.023438 6.628906 7.371094 8.046875 6.488281 9.910156 L 9.710938 9.910156 C 9.867188 8.957031 10.097656 8.089844 10.386719 7.347656 C 10.578125 6.863281 10.796875 6.433594 11.042969 6.0625 Z M 14.957031 6.0625 C 15.203125 6.433594 15.421875 6.863281 15.613281 7.347656 C 15.902344 8.089844 16.132812 8.957031 16.289062 9.910156 L 19.511719 9.910156 C 18.628906 8.046875 16.976562 6.628906 14.957031 6.0625 Z M 6.089844 10.9375 C 5.894531 11.59375 5.789062 12.285156 5.789062 13 C 5.789062 13.71875 5.894531 14.40625 6.089844 15.0625 L 9.585938 15.0625 C 9.519531 14.398438 9.46875 13.714844 9.46875 13 C 9.46875 12.285156 9.519531 11.601562 9.585938 10.9375 Z M 10.625 10.9375 C 10.550781 11.597656 10.5 12.28125 10.5 13 C 10.5 13.722656 10.550781 14.402344 10.625 15.0625 L 15.375 15.0625 C 15.449219 14.402344 15.5 13.722656 15.5 13 C 15.5 12.28125 15.449219 11.597656 15.375 10.9375 Z M 16.414062 10.9375 C 16.480469 11.601562 16.53125 12.285156 16.53125 13 C 16.53125 13.714844 16.480469 14.398438 16.414062 15.0625 L 19.910156 15.0625 C 20.105469 14.40625 20.210938 13.71875 20.210938 13 C 20.210938 12.285156 20.105469 11.59375 19.910156 10.9375 Z M 6.488281 16.089844 C 7.375 17.949219 9.023438 19.371094 11.039062 19.9375 C 10.792969 19.566406 10.578125 19.140625 10.386719 18.652344 C 10.097656 17.910156 9.867188 17.046875 9.710938 16.089844 Z M 10.765625 16.089844 C 10.910156 16.914062 11.105469 17.664062 11.347656 18.277344 C 11.601562 18.9375 11.90625 19.449219 12.203125 19.769531 C 12.5 20.09375 12.761719 20.210938 13 20.210938 C 13.238281 20.210938 13.5 20.09375 13.796875 19.769531 C 14.09375 19.449219 14.398438 18.9375 14.652344 18.277344 C 14.894531 17.664062 15.089844 16.914062 15.234375 16.089844 Z M 16.289062 16.089844 C 16.132812 17.046875 15.902344 17.910156 15.613281 18.652344 C 15.421875 19.140625 15.207031 19.566406 14.960938 19.9375 C 16.976562 19.371094 18.625 17.949219 19.511719 16.089844 Z M 16.289062 16.089844 "/>
</g>
</svg>
