<?xml version="1.0" encoding="UTF-8"?>
<svg xmlns="http://www.w3.org/2000/svg" xmlns:xlink="http://www.w3.org/1999/xlink" width="26px" height="26px" viewBox="0 0 26 26" version="1.1">
<g id="surface1">
<rect x="0" y="0" width="26" height="26" style="fill:rgb(100%,100%,100%);fill-opacity:1;stroke:none;"/>
<path style=" stroke:none;fill-rule:nonzero;fill:rgb(25.490196%,76.862745%,90.196078%);fill-opacity:1;" d="M 13 0.121094 C 20.113281 0.121094 25.878906 5.886719 25.878906 13 C 25.878906 20.113281 20.113281 25.878906 13 25.878906 C 5.886719 25.878906 0.121094 20.113281 0.121094 13 C 0.121094 5.886719 5.886719 0.121094 13 0.121094 Z M 20.75 17.242188 L 20.746094 8.957031 L 15.808594 12.355469 Z M 14.996094 12.8125 L 13.238281 13.988281 C 13.164062 14.039062 13.078125 14.0625 12.996094 14.0625 C 12.910156 14.0625 12.824219 14.039062 12.75 13.988281 L 10.949219 12.777344 L 5.863281 17.8125 L 20.148438 17.8125 Z M 10.1875 12.261719 L 5.261719 8.941406 L 5.261719 17.210938 Z M 12.992188 13.074219 L 20.144531 8.273438 L 5.875 8.273438 Z M 12.992188 13.074219 "/>
</g>
</svg>
