<?xml version="1.0" encoding="UTF-8"?>
<svg xmlns="http://www.w3.org/2000/svg" xmlns:xlink="http://www.w3.org/1999/xlink" width="26px" height="26px" viewBox="0 0 26 26" version="1.1">
<g id="surface1">
<path style=" stroke:none;fill-rule:nonzero;fill:rgb(24.313725%,77.254902%,90.980392%);fill-opacity:1;" d="M 24.460938 13 C 24.460938 19.328125 19.328125 24.460938 13 24.460938 C 6.671875 24.460938 1.539062 19.328125 1.539062 13 C 1.539062 6.671875 6.671875 1.539062 13 1.539062 C 19.328125 1.539062 24.460938 6.671875 24.460938 13 Z M 24.460938 13 "/>
<path style=" stroke:none;fill-rule:nonzero;fill:rgb(100%,100%,100%);fill-opacity:1;" d="M 12.480469 10.804688 L 13.519531 10.804688 L 13.519531 13.242188 L 12.480469 13.242188 Z M 12.054688 13.65625 L 13.945312 13.65625 L 13.945312 10.378906 L 12.054688 10.378906 Z M 12.054688 13.65625 "/>
<path style=" stroke:none;fill-rule:nonzero;fill:rgb(100%,100%,100%);fill-opacity:1;" d="M 12.480469 5.949219 L 13.519531 5.949219 L 13.519531 8.386719 L 12.480469 8.386719 Z M 12.054688 8.800781 L 13.945312 8.800781 L 13.945312 5.527344 L 12.054688 5.527344 Z M 12.054688 8.800781 "/>
<path style=" stroke:none;fill-rule:nonzero;fill:rgb(100%,100%,100%);fill-opacity:1;" d="M 9.890625 10.804688 L 10.929688 10.804688 L 10.929688 13.242188 L 9.890625 13.242188 Z M 9.464844 13.65625 L 11.351562 13.65625 L 11.351562 10.378906 L 9.464844 10.378906 Z M 9.464844 13.65625 "/>
<path style=" stroke:none;fill-rule:nonzero;fill:rgb(100%,100%,100%);fill-opacity:1;" d="M 9.890625 5.949219 L 10.929688 5.949219 L 10.929688 8.386719 L 9.890625 8.386719 Z M 9.464844 8.800781 L 11.351562 8.800781 L 11.351562 5.527344 L 9.464844 5.527344 Z M 9.464844 8.800781 "/>
<path style=" stroke:none;fill-rule:nonzero;fill:rgb(100%,100%,100%);fill-opacity:1;" d="M 15.0625 10.804688 L 16.101562 10.804688 L 16.101562 13.242188 L 15.0625 13.242188 Z M 14.636719 13.65625 L 16.523438 13.65625 L 16.523438 10.378906 L 14.636719 10.378906 Z M 14.636719 13.65625 "/>
<path style=" stroke:none;fill-rule:nonzero;fill:rgb(100%,100%,100%);fill-opacity:1;" d="M 15.0625 5.949219 L 16.101562 5.949219 L 16.101562 8.386719 L 15.0625 8.386719 Z M 14.636719 8.800781 L 16.523438 8.800781 L 16.523438 5.527344 L 14.636719 5.527344 Z M 14.636719 8.800781 "/>
<path style=" stroke:none;fill-rule:nonzero;fill:rgb(100%,100%,100%);fill-opacity:1;" d="M 20.734375 20.636719 L 17.84375 20.636719 L 17.84375 12.238281 L 20.011719 12.238281 C 20.40625 12.238281 20.722656 12.558594 20.722656 12.953125 L 20.722656 20.636719 Z M 17.429688 20.636719 L 15.070312 20.636719 L 15.070312 15.753906 C 15.070312 15.503906 14.867188 15.3125 14.628906 15.3125 L 11.390625 15.3125 C 11.140625 15.3125 10.949219 15.511719 10.949219 15.753906 L 10.949219 20.636719 L 8.589844 20.636719 L 8.589844 5.179688 C 8.589844 4.785156 8.90625 4.46875 9.300781 4.46875 L 16.726562 4.46875 C 17.121094 4.46875 17.4375 4.785156 17.4375 5.179688 L 17.4375 20.636719 Z M 11.363281 20.636719 L 11.363281 15.753906 C 11.363281 15.753906 11.371094 15.726562 11.390625 15.726562 L 14.628906 15.726562 C 14.628906 15.726562 14.65625 15.734375 14.65625 15.753906 L 14.65625 20.636719 Z M 8.15625 20.636719 L 5.265625 20.636719 L 5.265625 12.953125 C 5.265625 12.558594 5.585938 12.238281 5.980469 12.238281 L 8.148438 12.238281 L 8.148438 20.636719 Z M 20.019531 11.816406 L 17.851562 11.816406 L 17.851562 5.179688 C 17.851562 4.554688 17.34375 4.042969 16.71875 4.042969 L 9.292969 4.042969 C 8.667969 4.042969 8.15625 4.554688 8.15625 5.179688 L 8.15625 11.816406 L 5.988281 11.816406 C 5.363281 11.816406 4.851562 12.324219 4.851562 12.953125 L 4.851562 21.050781 L 21.15625 21.050781 L 21.15625 12.953125 C 21.15625 12.324219 20.644531 11.816406 20.019531 11.816406 Z M 20.019531 11.816406 "/>
</g>
</svg>
