<?xml version="1.0" encoding="UTF-8"?>
<svg xmlns="http://www.w3.org/2000/svg" xmlns:xlink="http://www.w3.org/1999/xlink" width="26px" height="26px" viewBox="0 0 26 26" version="1.1">
<g id="surface1">
<rect x="0" y="0" width="26" height="26" style="fill:rgb(100%,100%,100%);fill-opacity:1;stroke:none;"/>
<path style=" stroke:none;fill-rule:nonzero;fill:rgb(25.490196%,76.862745%,90.196078%);fill-opacity:1;" d="M 13 0.121094 C 9.585938 0.121094 6.308594 1.476562 3.894531 3.894531 C 1.476562 6.308594 0.121094 9.585938 0.121094 13 C 0.121094 16.414062 1.476562 19.691406 3.894531 22.105469 C 6.308594 24.523438 9.585938 25.878906 13 25.878906 C 16.414062 25.878906 19.691406 24.523438 22.105469 22.105469 C 24.523438 19.691406 25.878906 16.414062 25.878906 13 C 25.878906 9.585938 24.523438 6.308594 22.105469 3.894531 C 19.691406 1.476562 16.414062 0.121094 13 0.121094 Z M 13 6.304688 C 15.839844 6.304688 18.152344 8.617188 18.152344 11.453125 C 18.152344 15.40625 14.394531 19.03125 13.363281 20.0625 L 13 20.425781 L 12.636719 20.0625 C 11.605469 19.03125 7.847656 15.394531 7.847656 11.453125 C 7.847656 8.617188 10.160156 6.304688 13 6.304688 Z M 13 7.332031 C 10.71875 7.332031 8.878906 9.171875 8.878906 11.453125 C 8.878906 14.480469 11.753906 17.625 13 18.902344 C 14.246094 17.625 17.121094 14.492188 17.121094 11.453125 C 17.121094 9.171875 15.28125 7.332031 13 7.332031 Z M 13 9.394531 C 14.132812 9.394531 15.0625 10.324219 15.0625 11.453125 C 15.0625 12.585938 14.132812 13.515625 13 13.515625 C 11.867188 13.515625 10.9375 12.585938 10.9375 11.453125 C 10.9375 10.324219 11.867188 9.394531 13 9.394531 Z M 13 10.425781 C 12.425781 10.425781 11.96875 10.878906 11.96875 11.453125 C 11.96875 12.03125 12.425781 12.484375 13 12.484375 C 13.574219 12.484375 14.03125 12.03125 14.03125 11.453125 C 14.03125 10.878906 13.574219 10.425781 13 10.425781 Z M 13 10.425781 "/>
</g>
</svg>
