<?xml version="1.0" encoding="UTF-8"?>
<svg xmlns="http://www.w3.org/2000/svg" xmlns:xlink="http://www.w3.org/1999/xlink" width="27px" height="27px" viewBox="0 0 27 27" version="1.1">
<g id="surface1">
<path style=" stroke:none;fill-rule:nonzero;fill:rgb(100%,100%,100%);fill-opacity:1;" d="M 15.53125 27.015625 C 10.355469 27.015625 5.183594 27.015625 0.015625 27.015625 C 0.015625 18.015625 0.015625 9.015625 0.015625 0.015625 C 9.015625 0.015625 18.015625 0.015625 27.015625 0.015625 C 27.015625 9.015625 27.015625 18.015625 27.015625 27.015625 C 23.191406 27.015625 19.367188 27.015625 15.53125 27.015625 M 10.460938 2.023438 C 9.574219 2.257812 8.726562 2.59375 7.917969 3.027344 C 6.660156 3.703125 5.558594 4.574219 4.613281 5.640625 C 3.945312 6.394531 3.382812 7.222656 2.925781 8.117188 C 2.402344 9.148438 2.035156 10.234375 1.820312 11.371094 C 1.71875 11.929688 1.65625 12.492188 1.632812 13.054688 C 1.617188 13.359375 1.625 13.667969 1.644531 13.96875 C 1.671875 14.359375 1.707031 14.75 1.753906 15.140625 C 1.847656 15.855469 2.015625 16.550781 2.238281 17.234375 C 2.660156 18.523438 3.296875 19.695312 4.125 20.765625 C 4.25 20.929688 4.378906 21.085938 4.519531 21.261719 C 5.402344 18.171875 7.324219 16.035156 10.289062 14.828125 C 8.914062 13.804688 8.058594 12.480469 7.890625 10.773438 C 7.722656 9.082031 8.167969 7.554688 9.332031 6.296875 C 11.480469 3.960938 15.167969 3.804688 17.472656 6.0625 C 18.585938 7.15625 19.183594 8.476562 19.1875 10.050781 C 19.195312 12.058594 18.335938 13.625 16.726562 14.8125 C 19.691406 16.019531 21.621094 18.148438 22.507812 21.242188 C 22.535156 21.203125 22.546875 21.1875 22.558594 21.171875 C 23.535156 20.074219 24.238281 18.820312 24.722656 17.441406 C 25.085938 16.414062 25.296875 15.351562 25.371094 14.261719 C 25.386719 13.96875 25.394531 13.679688 25.398438 13.386719 C 25.398438 13.210938 25.382812 13.035156 25.371094 12.859375 C 25.347656 12.546875 25.328125 12.234375 25.292969 11.925781 C 25.191406 11.097656 24.992188 10.289062 24.710938 9.503906 C 23.960938 7.441406 22.730469 5.710938 21.039062 4.320312 C 19.703125 3.21875 18.191406 2.445312 16.515625 2.007812 C 15.863281 1.839844 15.203125 1.710938 14.527344 1.675781 C 14.304688 1.664062 14.085938 1.636719 13.863281 1.628906 C 13.242188 1.609375 12.621094 1.644531 12.007812 1.722656 C 11.488281 1.785156 10.976562 1.882812 10.460938 2.023438 M 13.125 15.855469 C 12.917969 15.871094 12.710938 15.886719 12.503906 15.910156 C 11.753906 15.996094 11.042969 16.207031 10.359375 16.53125 C 9.34375 17.011719 8.464844 17.675781 7.71875 18.515625 C 7.007812 19.320312 6.496094 20.242188 6.199219 21.277344 C 6.097656 21.628906 6.035156 21.992188 5.949219 22.351562 C 5.90625 22.527344 5.960938 22.660156 6.09375 22.769531 C 7.164062 23.621094 8.339844 24.285156 9.636719 24.722656 C 10.277344 24.941406 10.929688 25.101562 11.597656 25.207031 C 11.902344 25.257812 12.207031 25.289062 12.511719 25.324219 C 12.722656 25.347656 12.9375 25.363281 13.148438 25.371094 C 13.382812 25.382812 13.617188 25.394531 13.847656 25.386719 C 14.058594 25.382812 14.269531 25.359375 14.476562 25.339844 C 14.699219 25.320312 14.921875 25.300781 15.144531 25.269531 C 15.949219 25.164062 16.734375 24.976562 17.496094 24.703125 C 18.769531 24.253906 19.925781 23.59375 20.972656 22.742188 C 21.066406 22.667969 21.109375 22.566406 21.097656 22.453125 C 21.046875 21.988281 20.949219 21.535156 20.796875 21.09375 C 20.496094 20.230469 20.046875 19.449219 19.492188 18.730469 C 18.816406 17.851562 17.984375 17.160156 16.988281 16.671875 C 15.984375 16.175781 14.921875 15.933594 13.8125 15.867188 C 13.589844 15.851562 13.363281 15.859375 13.125 15.855469 M 12.800781 6.101562 C 12.792969 6.105469 12.78125 6.105469 12.769531 6.109375 C 11.75 6.3125 10.910156 6.820312 10.285156 7.652344 C 9.519531 8.660156 9.261719 9.792969 9.53125 11.03125 C 9.742188 11.992188 10.261719 12.769531 11.042969 13.371094 C 11.699219 13.871094 12.445312 14.140625 13.265625 14.199219 C 13.589844 14.226562 13.914062 14.199219 14.234375 14.140625 C 15.214844 13.957031 16.027344 13.488281 16.667969 12.722656 C 17.214844 12.0625 17.523438 11.300781 17.585938 10.445312 C 17.605469 10.214844 17.601562 9.980469 17.582031 9.75 C 17.542969 9.253906 17.410156 8.78125 17.183594 8.335938 C 16.632812 7.257812 15.777344 6.539062 14.613281 6.195312 C 14.023438 6.019531 13.421875 5.992188 12.800781 6.101562 Z M 12.800781 6.101562 "/>
<path style=" stroke:none;fill-rule:nonzero;fill:rgb(24.313725%,77.254902%,90.980392%);fill-opacity:1;" d="M 10.46875 2.023438 C 10.976562 1.882812 11.488281 1.785156 12.007812 1.722656 C 12.621094 1.644531 13.242188 1.609375 13.863281 1.628906 C 14.085938 1.636719 14.304688 1.664062 14.527344 1.675781 C 15.203125 1.710938 15.863281 1.839844 16.515625 2.007812 C 18.191406 2.445312 19.703125 3.21875 21.039062 4.320312 C 22.730469 5.710938 23.960938 7.441406 24.710938 9.503906 C 24.992188 10.289062 25.191406 11.097656 25.292969 11.925781 C 25.328125 12.234375 25.347656 12.546875 25.371094 12.859375 C 25.382812 13.035156 25.398438 13.210938 25.398438 13.386719 C 25.394531 13.679688 25.386719 13.96875 25.371094 14.261719 C 25.296875 15.351562 25.085938 16.414062 24.722656 17.441406 C 24.238281 18.820312 23.535156 20.074219 22.558594 21.171875 C 22.546875 21.1875 22.535156 21.203125 22.507812 21.242188 C 21.621094 18.148438 19.691406 16.019531 16.726562 14.8125 C 18.335938 13.625 19.195312 12.058594 19.1875 10.050781 C 19.183594 8.476562 18.585938 7.15625 17.472656 6.0625 C 15.167969 3.804688 11.480469 3.960938 9.332031 6.296875 C 8.167969 7.554688 7.722656 9.082031 7.890625 10.773438 C 8.058594 12.480469 8.914062 13.804688 10.289062 14.828125 C 7.324219 16.035156 5.402344 18.171875 4.519531 21.261719 C 4.378906 21.085938 4.25 20.929688 4.125 20.765625 C 3.296875 19.695312 2.660156 18.523438 2.238281 17.234375 C 2.015625 16.550781 1.847656 15.855469 1.753906 15.140625 C 1.707031 14.75 1.671875 14.359375 1.644531 13.96875 C 1.625 13.667969 1.617188 13.359375 1.632812 13.054688 C 1.65625 12.492188 1.71875 11.929688 1.820312 11.371094 C 2.035156 10.234375 2.402344 9.148438 2.925781 8.117188 C 3.382812 7.222656 3.945312 6.394531 4.613281 5.640625 C 5.558594 4.574219 6.660156 3.703125 7.917969 3.027344 C 8.726562 2.59375 9.574219 2.257812 10.46875 2.023438 Z M 10.46875 2.023438 "/>
<path style=" stroke:none;fill-rule:nonzero;fill:rgb(24.313725%,77.254902%,90.980392%);fill-opacity:1;" d="M 13.132812 15.855469 C 13.363281 15.859375 13.589844 15.851562 13.8125 15.867188 C 14.921875 15.933594 15.984375 16.175781 16.988281 16.671875 C 17.984375 17.160156 18.816406 17.851562 19.492188 18.730469 C 20.046875 19.449219 20.496094 20.230469 20.796875 21.09375 C 20.949219 21.535156 21.046875 21.988281 21.097656 22.453125 C 21.109375 22.566406 21.066406 22.667969 20.972656 22.742188 C 19.925781 23.59375 18.769531 24.253906 17.496094 24.703125 C 16.734375 24.976562 15.949219 25.164062 15.144531 25.269531 C 14.921875 25.300781 14.699219 25.320312 14.476562 25.339844 C 14.269531 25.359375 14.058594 25.382812 13.847656 25.386719 C 13.617188 25.394531 13.382812 25.382812 13.148438 25.371094 C 12.9375 25.363281 12.722656 25.347656 12.511719 25.324219 C 12.207031 25.289062 11.902344 25.257812 11.597656 25.207031 C 10.929688 25.101562 10.277344 24.941406 9.636719 24.722656 C 8.339844 24.285156 7.164062 23.621094 6.09375 22.769531 C 5.960938 22.660156 5.90625 22.527344 5.949219 22.351562 C 6.035156 21.992188 6.097656 21.628906 6.199219 21.277344 C 6.496094 20.242188 7.007812 19.320312 7.71875 18.515625 C 8.464844 17.675781 9.34375 17.011719 10.359375 16.53125 C 11.042969 16.207031 11.753906 15.996094 12.503906 15.910156 C 12.710938 15.886719 12.917969 15.871094 13.132812 15.855469 Z M 13.132812 15.855469 "/>
<path style=" stroke:none;fill-rule:nonzero;fill:rgb(24.313725%,77.254902%,90.980392%);fill-opacity:1;" d="M 12.808594 6.101562 C 13.421875 5.992188 14.023438 6.019531 14.613281 6.195312 C 15.777344 6.539062 16.632812 7.257812 17.183594 8.335938 C 17.410156 8.78125 17.542969 9.253906 17.582031 9.75 C 17.601562 9.980469 17.605469 10.214844 17.585938 10.445312 C 17.523438 11.300781 17.214844 12.0625 16.667969 12.722656 C 16.027344 13.488281 15.214844 13.957031 14.234375 14.140625 C 13.914062 14.199219 13.589844 14.226562 13.265625 14.199219 C 12.445312 14.140625 11.699219 13.871094 11.042969 13.371094 C 10.261719 12.769531 9.742188 11.992188 9.53125 11.03125 C 9.261719 9.792969 9.519531 8.660156 10.285156 7.652344 C 10.910156 6.820312 11.75 6.3125 12.769531 6.109375 C 12.78125 6.105469 12.792969 6.105469 12.808594 6.101562 Z M 12.808594 6.101562 "/>
</g>
</svg>
