<?xml version="1.0" encoding="UTF-8"?>
<svg xmlns="http://www.w3.org/2000/svg" xmlns:xlink="http://www.w3.org/1999/xlink" width="27px" height="27px" viewBox="0 0 27 27" version="1.1">
<g id="surface1">
<path style=" stroke:none;fill-rule:nonzero;fill:rgb(24.313725%,77.254902%,90.980392%);fill-opacity:1;" d="M 0.015625 14.265625 C 0.015625 14.1875 0.015625 14.109375 0.0234375 14.019531 C 0.0273438 13.640625 0.03125 13.273438 0.03125 12.90625 C 0.03125 12.898438 0.0195312 12.886719 0.015625 12.875 C 0.015625 12.816406 0.015625 12.757812 0.0195312 12.6875 C 0.0429688 12.515625 0.0585938 12.351562 0.0820312 12.191406 C 0.121094 11.90625 0.15625 11.625 0.207031 11.34375 C 0.265625 11.003906 0.320312 10.667969 0.402344 10.335938 C 0.519531 9.886719 0.648438 9.433594 0.796875 8.996094 C 0.9375 8.582031 1.105469 8.179688 1.285156 7.785156 C 1.457031 7.414062 1.652344 7.058594 1.851562 6.707031 C 2.113281 6.246094 2.40625 5.808594 2.742188 5.398438 C 3.03125 5.042969 3.324219 4.691406 3.632812 4.351562 C 3.867188 4.09375 4.125 3.855469 4.382812 3.617188 C 4.625 3.390625 4.875 3.167969 5.136719 2.957031 C 5.4375 2.714844 5.75 2.480469 6.066406 2.261719 C 6.675781 1.835938 7.324219 1.46875 8.007812 1.171875 C 8.328125 1.03125 8.652344 0.898438 8.980469 0.777344 C 9.445312 0.605469 9.921875 0.460938 10.414062 0.367188 C 10.917969 0.269531 11.429688 0.1875 11.941406 0.113281 C 12.222656 0.0742188 12.507812 0.0625 12.789062 0.0507812 C 13.03125 0.0390625 13.273438 0.0429688 13.511719 0.046875 C 13.835938 0.0546875 14.164062 0.0664062 14.488281 0.078125 C 14.652344 0.0859375 14.816406 0.09375 14.980469 0.113281 C 15.253906 0.144531 15.527344 0.175781 15.796875 0.222656 C 16.144531 0.28125 16.496094 0.335938 16.835938 0.417969 C 17.238281 0.519531 17.636719 0.640625 18.027344 0.769531 C 18.328125 0.867188 18.621094 0.980469 18.90625 1.105469 C 19.234375 1.25 19.550781 1.410156 19.867188 1.578125 C 20.15625 1.734375 20.441406 1.902344 20.71875 2.078125 C 21.144531 2.347656 21.550781 2.648438 21.933594 2.976562 C 22.21875 3.222656 22.507812 3.464844 22.773438 3.730469 C 23.132812 4.085938 23.472656 4.457031 23.8125 4.828125 C 23.980469 5.007812 24.140625 5.199219 24.285156 5.398438 C 24.53125 5.726562 24.769531 6.0625 24.992188 6.40625 C 25.191406 6.707031 25.378906 7.019531 25.539062 7.339844 C 25.75 7.753906 25.9375 8.179688 26.121094 8.605469 C 26.320312 9.066406 26.464844 9.542969 26.585938 10.023438 C 26.703125 10.480469 26.804688 10.941406 26.859375 11.414062 C 26.894531 11.734375 26.9375 12.058594 26.964844 12.382812 C 26.984375 12.585938 26.976562 12.796875 26.984375 13.003906 C 26.988281 13.082031 27.003906 13.160156 27.015625 13.238281 C 27.015625 13.292969 27.015625 13.34375 27.011719 13.410156 C 26.996094 13.480469 26.988281 13.539062 26.984375 13.597656 C 26.96875 13.929688 26.953125 14.261719 26.9375 14.59375 C 26.925781 14.777344 26.910156 14.964844 26.886719 15.148438 C 26.855469 15.386719 26.820312 15.625 26.777344 15.863281 C 26.722656 16.179688 26.667969 16.496094 26.597656 16.808594 C 26.484375 17.292969 26.351562 17.773438 26.171875 18.238281 C 26.023438 18.628906 25.859375 19.015625 25.691406 19.394531 C 25.582031 19.632812 25.457031 19.867188 25.324219 20.09375 C 25.164062 20.375 25.003906 20.65625 24.820312 20.925781 C 24.601562 21.246094 24.371094 21.554688 24.128906 21.855469 C 23.898438 22.144531 23.65625 22.421875 23.40625 22.691406 C 23.136719 22.972656 22.851562 23.234375 22.566406 23.5 C 22.375 23.675781 22.179688 23.855469 21.972656 24.011719 C 21.589844 24.300781 21.207031 24.589844 20.808594 24.855469 C 20.460938 25.085938 20.097656 25.300781 19.726562 25.492188 C 19.332031 25.695312 18.921875 25.871094 18.515625 26.046875 C 18.023438 26.25 17.515625 26.410156 17 26.539062 C 16.699219 26.617188 16.394531 26.683594 16.089844 26.742188 C 15.851562 26.789062 15.609375 26.820312 15.367188 26.855469 C 15.199219 26.882812 15.027344 26.902344 14.859375 26.925781 C 14.695312 26.945312 14.527344 26.976562 14.363281 26.980469 C 14.011719 26.988281 13.660156 26.988281 13.3125 26.984375 C 13 26.976562 12.691406 27.007812 12.378906 26.941406 C 12.136719 26.890625 11.882812 26.890625 11.632812 26.855469 C 11.335938 26.8125 11.035156 26.757812 10.738281 26.699219 C 10.15625 26.585938 9.589844 26.421875 9.03125 26.226562 C 8.433594 26.019531 7.847656 25.777344 7.289062 25.480469 C 6.917969 25.28125 6.550781 25.070312 6.195312 24.847656 C 5.765625 24.578125 5.355469 24.277344 4.972656 23.945312 C 4.667969 23.679688 4.367188 23.410156 4.070312 23.132812 C 3.9375 23.015625 3.820312 22.878906 3.699219 22.75 C 3.546875 22.585938 3.398438 22.429688 3.257812 22.257812 C 3.035156 21.988281 2.820312 21.714844 2.609375 21.4375 C 2.261719 20.984375 1.957031 20.5 1.683594 20 C 1.519531 19.707031 1.371094 19.40625 1.234375 19.097656 C 1.085938 18.765625 0.949219 18.429688 0.824219 18.089844 C 0.636719 17.59375 0.496094 17.085938 0.382812 16.570312 C 0.320312 16.289062 0.269531 16.003906 0.222656 15.71875 C 0.191406 15.53125 0.167969 15.339844 0.140625 15.148438 C 0.109375 14.929688 0.078125 14.707031 0.046875 14.488281 C 0.0351562 14.414062 0.0273438 14.339844 0.015625 14.265625 M 23.535156 7.128906 C 23.292969 6.792969 23.058594 6.453125 22.804688 6.125 C 22.605469 5.867188 22.390625 5.617188 22.164062 5.378906 C 21.816406 5.011719 21.453125 4.65625 21.054688 4.34375 C 20.78125 4.132812 20.507812 3.914062 20.222656 3.714844 C 19.667969 3.328125 19.085938 2.992188 18.46875 2.71875 C 18.09375 2.558594 17.71875 2.402344 17.335938 2.265625 C 16.902344 2.105469 16.457031 1.992188 16.003906 1.894531 C 15.492188 1.78125 14.972656 1.710938 14.449219 1.664062 C 14.171875 1.640625 13.890625 1.636719 13.609375 1.628906 C 13.398438 1.628906 13.1875 1.636719 12.980469 1.644531 C 12.789062 1.652344 12.601562 1.660156 12.414062 1.679688 C 12.144531 1.707031 11.878906 1.742188 11.613281 1.789062 C 11.324219 1.835938 11.035156 1.894531 10.75 1.957031 C 10.289062 2.0625 9.835938 2.203125 9.390625 2.371094 C 8.875 2.566406 8.375 2.792969 7.886719 3.054688 C 7.417969 3.308594 6.96875 3.59375 6.539062 3.90625 C 6.152344 4.183594 5.78125 4.484375 5.433594 4.8125 C 5.148438 5.082031 4.878906 5.371094 4.613281 5.664062 C 4.410156 5.886719 4.222656 6.125 4.039062 6.363281 C 3.613281 6.910156 3.25 7.496094 2.9375 8.113281 C 2.792969 8.398438 2.667969 8.695312 2.539062 8.984375 C 2.332031 9.453125 2.175781 9.9375 2.042969 10.425781 C 1.898438 10.972656 1.777344 11.523438 1.722656 12.089844 C 1.695312 12.359375 1.660156 12.628906 1.648438 12.898438 C 1.636719 13.15625 1.640625 13.417969 1.644531 13.675781 C 1.652344 13.910156 1.660156 14.140625 1.679688 14.375 C 1.703125 14.652344 1.730469 14.933594 1.773438 15.210938 C 1.828125 15.558594 1.886719 15.90625 1.96875 16.25 C 2.070312 16.703125 2.207031 17.152344 2.371094 17.589844 C 2.554688 18.089844 2.769531 18.582031 3.023438 19.054688 C 3.246094 19.464844 3.480469 19.863281 3.753906 20.242188 C 3.996094 20.578125 4.25 20.910156 4.511719 21.261719 C 5.394531 18.167969 7.316406 16.035156 10.265625 14.828125 C 10.066406 14.660156 9.863281 14.507812 9.683594 14.335938 C 9.476562 14.136719 9.28125 13.917969 9.09375 13.703125 C 8.839844 13.414062 8.640625 13.085938 8.464844 12.746094 C 8.253906 12.34375 8.101562 11.917969 7.996094 11.472656 C 7.902344 11.070312 7.855469 10.664062 7.847656 10.25 C 7.84375 10.121094 7.851562 9.996094 7.863281 9.867188 C 7.875 9.695312 7.890625 9.523438 7.910156 9.351562 C 7.945312 9.035156 8.019531 8.726562 8.113281 8.417969 C 8.25 7.96875 8.441406 7.539062 8.683594 7.136719 C 8.882812 6.804688 9.113281 6.492188 9.386719 6.21875 C 9.554688 6.050781 9.734375 5.894531 9.914062 5.738281 C 10.199219 5.496094 10.511719 5.300781 10.839844 5.125 C 11.296875 4.878906 11.78125 4.695312 12.289062 4.59375 C 12.582031 4.53125 12.882812 4.488281 13.183594 4.464844 C 13.445312 4.445312 13.714844 4.457031 13.980469 4.480469 C 14.25 4.5 14.523438 4.535156 14.789062 4.59375 C 15.445312 4.738281 16.058594 5 16.621094 5.367188 C 16.980469 5.605469 17.316406 5.875 17.605469 6.195312 C 17.734375 6.335938 17.867188 6.480469 17.992188 6.628906 C 18.226562 6.917969 18.429688 7.230469 18.601562 7.558594 C 18.808594 7.957031 18.960938 8.375 19.058594 8.8125 C 19.136719 9.167969 19.191406 9.53125 19.1875 9.898438 C 19.183594 10 19.191406 10.105469 19.183594 10.207031 C 19.171875 10.4375 19.160156 10.667969 19.136719 10.894531 C 19.105469 11.238281 19.023438 11.574219 18.917969 11.902344 C 18.804688 12.265625 18.648438 12.609375 18.460938 12.941406 C 18.21875 13.359375 17.929688 13.742188 17.589844 14.078125 C 17.324219 14.339844 17.035156 14.578125 16.761719 14.820312 C 19.695312 16.011719 21.621094 18.140625 22.511719 21.222656 C 22.613281 21.101562 22.699219 21.003906 22.777344 20.902344 C 22.976562 20.644531 23.183594 20.390625 23.363281 20.125 C 23.566406 19.824219 23.75 19.507812 23.933594 19.195312 C 24.171875 18.78125 24.378906 18.347656 24.542969 17.898438 C 24.699219 17.488281 24.835938 17.070312 24.957031 16.652344 C 25.0625 16.289062 25.140625 15.917969 25.210938 15.546875 C 25.261719 15.261719 25.292969 14.976562 25.320312 14.6875 C 25.351562 14.398438 25.375 14.105469 25.382812 13.8125 C 25.394531 13.546875 25.386719 13.28125 25.386719 13.015625 C 25.386719 12.90625 25.378906 12.796875 25.371094 12.6875 C 25.347656 12.445312 25.320312 12.203125 25.289062 11.964844 C 25.261719 11.742188 25.238281 11.519531 25.191406 11.300781 C 25.113281 10.9375 25.023438 10.574219 24.925781 10.214844 C 24.765625 9.613281 24.539062 9.03125 24.273438 8.46875 C 24.144531 8.195312 24 7.929688 23.855469 7.667969 C 23.757812 7.488281 23.644531 7.316406 23.535156 7.128906 M 6.246094 21.136719 C 6.199219 21.296875 6.144531 21.457031 6.105469 21.621094 C 6.054688 21.847656 6.011719 22.078125 5.964844 22.304688 C 5.933594 22.453125 5.929688 22.605469 6.042969 22.71875 C 6.136719 22.808594 6.246094 22.886719 6.355469 22.964844 C 6.605469 23.144531 6.855469 23.328125 7.117188 23.492188 C 7.433594 23.691406 7.757812 23.882812 8.09375 24.058594 C 8.394531 24.214844 8.707031 24.351562 9.019531 24.484375 C 9.5 24.6875 9.996094 24.84375 10.503906 24.972656 C 10.785156 25.046875 11.074219 25.105469 11.359375 25.164062 C 11.558594 25.203125 11.761719 25.234375 11.964844 25.257812 C 12.175781 25.285156 12.386719 25.304688 12.597656 25.324219 C 12.886719 25.347656 13.179688 25.371094 13.472656 25.382812 C 13.640625 25.390625 13.8125 25.378906 13.980469 25.371094 C 14.171875 25.359375 14.363281 25.34375 14.550781 25.324219 C 14.824219 25.292969 15.101562 25.269531 15.371094 25.226562 C 15.691406 25.175781 16.011719 25.113281 16.324219 25.042969 C 16.785156 24.9375 17.230469 24.796875 17.671875 24.632812 C 18.152344 24.453125 18.625 24.25 19.074219 23.996094 C 19.347656 23.839844 19.628906 23.6875 19.890625 23.511719 C 20.261719 23.265625 20.613281 22.996094 20.972656 22.734375 C 21.058594 22.671875 21.101562 22.566406 21.09375 22.46875 C 21.070312 22.257812 21.03125 22.046875 20.988281 21.839844 C 20.867188 21.226562 20.648438 20.648438 20.355469 20.097656 C 20.15625 19.71875 19.941406 19.347656 19.683594 19.003906 C 19.476562 18.722656 19.246094 18.453125 19.015625 18.191406 C 18.871094 18.027344 18.710938 17.875 18.546875 17.734375 C 18.332031 17.550781 18.113281 17.375 17.886719 17.210938 C 17.496094 16.929688 17.074219 16.707031 16.632812 16.515625 C 16.25 16.351562 15.855469 16.21875 15.449219 16.117188 C 14.917969 15.984375 14.378906 15.898438 13.835938 15.871094 C 13.480469 15.851562 13.121094 15.859375 12.761719 15.886719 C 12.496094 15.902344 12.230469 15.960938 11.964844 16.007812 C 11.414062 16.109375 10.890625 16.289062 10.386719 16.523438 C 9.988281 16.710938 9.601562 16.921875 9.246094 17.183594 C 8.933594 17.414062 8.621094 17.648438 8.332031 17.910156 C 8.03125 18.179688 7.75 18.476562 7.496094 18.796875 C 7.191406 19.179688 6.929688 19.585938 6.703125 20.015625 C 6.519531 20.371094 6.371094 20.742188 6.246094 21.136719 M 15.957031 13.390625 C 16.234375 13.171875 16.484375 12.933594 16.703125 12.660156 C 16.996094 12.300781 17.214844 11.90625 17.367188 11.46875 C 17.53125 11 17.617188 10.515625 17.585938 10.015625 C 17.578125 9.835938 17.566406 9.652344 17.539062 9.472656 C 17.484375 9.078125 17.359375 8.703125 17.179688 8.351562 C 17.078125 8.148438 16.953125 7.960938 16.828125 7.773438 C 16.605469 7.433594 16.320312 7.152344 16 6.902344 C 15.703125 6.671875 15.378906 6.484375 15.027344 6.339844 C 14.566406 6.15625 14.085938 6.058594 13.59375 6.042969 C 13.308594 6.035156 13.03125 6.066406 12.75 6.121094 C 12.296875 6.203125 11.867188 6.371094 11.46875 6.605469 C 11.066406 6.839844 10.71875 7.144531 10.414062 7.496094 C 10.214844 7.730469 10.035156 7.980469 9.90625 8.257812 C 9.789062 8.503906 9.691406 8.757812 9.601562 9.015625 C 9.507812 9.289062 9.460938 9.582031 9.445312 9.871094 C 9.429688 10.234375 9.441406 10.597656 9.519531 10.957031 C 9.625 11.425781 9.796875 11.867188 10.050781 12.277344 C 10.273438 12.632812 10.546875 12.941406 10.863281 13.214844 C 11.074219 13.398438 11.304688 13.554688 11.546875 13.691406 C 11.894531 13.878906 12.257812 14.023438 12.644531 14.101562 C 12.984375 14.171875 13.324219 14.214844 13.675781 14.191406 C 13.992188 14.171875 14.308594 14.140625 14.613281 14.042969 C 14.875 13.957031 15.136719 13.859375 15.386719 13.742188 C 15.582031 13.648438 15.761719 13.511719 15.957031 13.390625 Z M 15.957031 13.390625 "/>
<path style=" stroke:none;fill-rule:nonzero;fill:rgb(100%,100%,100%);fill-opacity:1;" d="M 0.015625 14.273438 C 0.0273438 14.339844 0.0351562 14.414062 0.046875 14.488281 C 0.078125 14.707031 0.109375 14.929688 0.140625 15.148438 C 0.167969 15.339844 0.191406 15.53125 0.222656 15.71875 C 0.269531 16.003906 0.320312 16.289062 0.382812 16.570312 C 0.496094 17.085938 0.636719 17.59375 0.824219 18.089844 C 0.949219 18.429688 1.085938 18.765625 1.234375 19.097656 C 1.371094 19.40625 1.519531 19.707031 1.683594 20 C 1.957031 20.5 2.261719 20.984375 2.609375 21.4375 C 2.820312 21.714844 3.035156 21.988281 3.257812 22.257812 C 3.398438 22.429688 3.546875 22.585938 3.699219 22.75 C 3.820312 22.878906 3.9375 23.015625 4.070312 23.132812 C 4.367188 23.410156 4.667969 23.679688 4.972656 23.945312 C 5.355469 24.277344 5.765625 24.578125 6.195312 24.847656 C 6.550781 25.070312 6.917969 25.28125 7.289062 25.480469 C 7.847656 25.777344 8.433594 26.019531 9.03125 26.226562 C 9.589844 26.421875 10.15625 26.585938 10.738281 26.699219 C 11.035156 26.757812 11.335938 26.8125 11.632812 26.855469 C 11.882812 26.890625 12.136719 26.890625 12.378906 26.941406 C 12.691406 27.007812 13 26.976562 13.3125 26.984375 C 13.660156 26.988281 14.011719 26.988281 14.363281 26.980469 C 14.527344 26.976562 14.695312 26.945312 14.859375 26.925781 C 15.027344 26.902344 15.199219 26.882812 15.367188 26.855469 C 15.609375 26.820312 15.851562 26.789062 16.089844 26.742188 C 16.394531 26.683594 16.699219 26.617188 17 26.539062 C 17.515625 26.410156 18.023438 26.25 18.515625 26.046875 C 18.921875 25.871094 19.332031 25.695312 19.726562 25.492188 C 20.097656 25.300781 20.460938 25.085938 20.808594 24.855469 C 21.207031 24.589844 21.589844 24.300781 21.972656 24.011719 C 22.179688 23.855469 22.375 23.675781 22.566406 23.5 C 22.851562 23.234375 23.136719 22.972656 23.40625 22.691406 C 23.65625 22.421875 23.898438 22.144531 24.128906 21.855469 C 24.371094 21.554688 24.601562 21.246094 24.820312 20.925781 C 25.003906 20.65625 25.164062 20.375 25.324219 20.09375 C 25.457031 19.867188 25.582031 19.632812 25.691406 19.394531 C 25.859375 19.015625 26.023438 18.628906 26.171875 18.238281 C 26.351562 17.773438 26.484375 17.292969 26.597656 16.808594 C 26.667969 16.496094 26.722656 16.179688 26.777344 15.863281 C 26.820312 15.625 26.855469 15.386719 26.886719 15.148438 C 26.910156 14.964844 26.925781 14.777344 26.9375 14.59375 C 26.953125 14.261719 26.96875 13.929688 26.984375 13.597656 C 26.988281 13.539062 26.996094 13.480469 27.011719 13.417969 C 27.015625 17.945312 27.015625 22.480469 27.015625 27.015625 C 18.015625 27.015625 9.019531 27.015625 0.015625 27.015625 C 0.015625 22.769531 0.015625 18.527344 0.015625 14.273438 Z M 0.015625 14.273438 "/>
<path style=" stroke:none;fill-rule:nonzero;fill:rgb(100%,100%,100%);fill-opacity:1;" d="M 27.015625 13.230469 C 27.003906 13.160156 26.988281 13.082031 26.984375 13.003906 C 26.976562 12.796875 26.984375 12.585938 26.964844 12.382812 C 26.9375 12.058594 26.894531 11.734375 26.859375 11.414062 C 26.804688 10.941406 26.703125 10.480469 26.585938 10.023438 C 26.464844 9.542969 26.320312 9.066406 26.121094 8.605469 C 25.9375 8.179688 25.75 7.753906 25.539062 7.339844 C 25.378906 7.019531 25.191406 6.707031 24.992188 6.40625 C 24.769531 6.0625 24.53125 5.726562 24.285156 5.398438 C 24.140625 5.199219 23.980469 5.007812 23.8125 4.828125 C 23.472656 4.457031 23.132812 4.085938 22.773438 3.730469 C 22.507812 3.464844 22.21875 3.222656 21.933594 2.976562 C 21.550781 2.648438 21.144531 2.347656 20.71875 2.078125 C 20.441406 1.902344 20.15625 1.734375 19.867188 1.578125 C 19.550781 1.410156 19.234375 1.25 18.90625 1.105469 C 18.621094 0.980469 18.328125 0.867188 18.027344 0.769531 C 17.636719 0.640625 17.238281 0.519531 16.835938 0.417969 C 16.496094 0.335938 16.144531 0.28125 15.796875 0.222656 C 15.527344 0.175781 15.253906 0.144531 14.980469 0.113281 C 14.816406 0.09375 14.652344 0.0859375 14.488281 0.078125 C 14.164062 0.0664062 13.835938 0.0546875 13.511719 0.046875 C 13.273438 0.0429688 13.03125 0.0390625 12.789062 0.0507812 C 12.507812 0.0625 12.222656 0.0742188 11.941406 0.113281 C 11.429688 0.1875 10.917969 0.269531 10.414062 0.367188 C 9.921875 0.460938 9.445312 0.605469 8.980469 0.777344 C 8.652344 0.898438 8.328125 1.03125 8.007812 1.171875 C 7.324219 1.46875 6.675781 1.835938 6.066406 2.261719 C 5.75 2.480469 5.4375 2.714844 5.136719 2.957031 C 4.875 3.167969 4.625 3.390625 4.382812 3.617188 C 4.125 3.855469 3.867188 4.09375 3.632812 4.351562 C 3.324219 4.691406 3.03125 5.042969 2.742188 5.398438 C 2.40625 5.808594 2.113281 6.246094 1.851562 6.707031 C 1.652344 7.058594 1.457031 7.414062 1.285156 7.785156 C 1.105469 8.179688 0.9375 8.582031 0.796875 8.996094 C 0.648438 9.433594 0.519531 9.886719 0.402344 10.335938 C 0.320312 10.667969 0.265625 11.003906 0.207031 11.34375 C 0.15625 11.625 0.121094 11.90625 0.0820312 12.191406 C 0.0585938 12.351562 0.0429688 12.515625 0.0195312 12.683594 C 0.015625 8.460938 0.015625 4.238281 0.015625 0.015625 C 9.015625 0.015625 18.011719 0.015625 27.015625 0.015625 C 27.015625 4.417969 27.015625 8.820312 27.015625 13.230469 Z M 27.015625 13.230469 "/>
<path style=" stroke:none;fill-rule:nonzero;fill:rgb(100%,100%,100%);fill-opacity:1;" d="M 0.015625 12.882812 C 0.0195312 12.886719 0.03125 12.898438 0.03125 12.90625 C 0.03125 13.273438 0.0273438 13.640625 0.0234375 14.011719 C 0.015625 13.640625 0.015625 13.265625 0.015625 12.882812 Z M 0.015625 12.882812 "/>
<path style=" stroke:none;fill-rule:nonzero;fill:rgb(100%,100%,100%);fill-opacity:1;" d="M 23.535156 7.132812 C 23.644531 7.316406 23.757812 7.488281 23.855469 7.667969 C 24 7.929688 24.144531 8.195312 24.273438 8.46875 C 24.539062 9.03125 24.765625 9.613281 24.925781 10.214844 C 25.023438 10.574219 25.113281 10.9375 25.191406 11.300781 C 25.238281 11.519531 25.261719 11.742188 25.289062 11.964844 C 25.320312 12.203125 25.347656 12.445312 25.371094 12.6875 C 25.378906 12.796875 25.386719 12.90625 25.386719 13.015625 C 25.386719 13.28125 25.394531 13.546875 25.382812 13.8125 C 25.375 14.105469 25.351562 14.398438 25.320312 14.6875 C 25.292969 14.976562 25.261719 15.261719 25.210938 15.546875 C 25.140625 15.917969 25.0625 16.289062 24.957031 16.652344 C 24.835938 17.070312 24.699219 17.488281 24.542969 17.898438 C 24.378906 18.347656 24.171875 18.78125 23.933594 19.195312 C 23.75 19.507812 23.566406 19.824219 23.363281 20.125 C 23.183594 20.390625 22.976562 20.644531 22.777344 20.902344 C 22.699219 21.003906 22.613281 21.101562 22.511719 21.222656 C 21.621094 18.140625 19.695312 16.011719 16.761719 14.820312 C 17.035156 14.578125 17.324219 14.339844 17.589844 14.078125 C 17.929688 13.742188 18.21875 13.359375 18.460938 12.941406 C 18.648438 12.609375 18.804688 12.265625 18.917969 11.902344 C 19.023438 11.574219 19.105469 11.238281 19.136719 10.894531 C 19.160156 10.667969 19.171875 10.4375 19.183594 10.207031 C 19.191406 10.105469 19.183594 10 19.1875 9.898438 C 19.191406 9.53125 19.136719 9.167969 19.058594 8.8125 C 18.960938 8.375 18.808594 7.957031 18.601562 7.558594 C 18.429688 7.230469 18.226562 6.917969 17.992188 6.628906 C 17.867188 6.480469 17.734375 6.335938 17.605469 6.195312 C 17.316406 5.875 16.980469 5.605469 16.621094 5.367188 C 16.058594 5 15.445312 4.738281 14.789062 4.59375 C 14.523438 4.535156 14.25 4.5 13.980469 4.480469 C 13.714844 4.457031 13.445312 4.445312 13.183594 4.464844 C 12.882812 4.488281 12.582031 4.53125 12.289062 4.59375 C 11.78125 4.695312 11.296875 4.878906 10.839844 5.125 C 10.511719 5.300781 10.199219 5.496094 9.914062 5.738281 C 9.734375 5.894531 9.554688 6.050781 9.386719 6.21875 C 9.113281 6.492188 8.882812 6.804688 8.683594 7.136719 C 8.441406 7.539062 8.25 7.96875 8.113281 8.417969 C 8.019531 8.726562 7.945312 9.035156 7.910156 9.351562 C 7.890625 9.523438 7.875 9.695312 7.863281 9.867188 C 7.851562 9.996094 7.84375 10.121094 7.847656 10.25 C 7.855469 10.664062 7.902344 11.070312 7.996094 11.472656 C 8.101562 11.917969 8.253906 12.34375 8.464844 12.746094 C 8.640625 13.085938 8.839844 13.414062 9.09375 13.703125 C 9.28125 13.917969 9.476562 14.136719 9.683594 14.335938 C 9.863281 14.507812 10.066406 14.660156 10.265625 14.828125 C 7.316406 16.035156 5.394531 18.167969 4.511719 21.261719 C 4.25 20.910156 3.996094 20.578125 3.753906 20.242188 C 3.480469 19.863281 3.246094 19.464844 3.023438 19.054688 C 2.769531 18.582031 2.554688 18.089844 2.371094 17.589844 C 2.207031 17.152344 2.070312 16.703125 1.96875 16.25 C 1.886719 15.90625 1.828125 15.558594 1.773438 15.210938 C 1.730469 14.933594 1.703125 14.652344 1.679688 14.375 C 1.660156 14.140625 1.652344 13.910156 1.644531 13.675781 C 1.640625 13.417969 1.636719 13.15625 1.648438 12.898438 C 1.660156 12.628906 1.695312 12.359375 1.722656 12.089844 C 1.777344 11.523438 1.898438 10.972656 2.042969 10.425781 C 2.175781 9.9375 2.332031 9.453125 2.539062 8.984375 C 2.667969 8.695312 2.792969 8.398438 2.9375 8.113281 C 3.25 7.496094 3.613281 6.910156 4.039062 6.363281 C 4.222656 6.125 4.410156 5.886719 4.613281 5.664062 C 4.878906 5.371094 5.148438 5.082031 5.433594 4.8125 C 5.78125 4.484375 6.152344 4.183594 6.539062 3.90625 C 6.96875 3.59375 7.417969 3.308594 7.886719 3.054688 C 8.375 2.792969 8.875 2.566406 9.390625 2.371094 C 9.835938 2.203125 10.289062 2.0625 10.75 1.957031 C 11.035156 1.894531 11.324219 1.835938 11.613281 1.789062 C 11.878906 1.742188 12.144531 1.707031 12.414062 1.679688 C 12.601562 1.660156 12.789062 1.652344 12.980469 1.644531 C 13.1875 1.636719 13.398438 1.628906 13.609375 1.628906 C 13.890625 1.636719 14.171875 1.640625 14.449219 1.664062 C 14.972656 1.710938 15.492188 1.78125 16.003906 1.894531 C 16.457031 1.992188 16.902344 2.105469 17.335938 2.265625 C 17.71875 2.402344 18.09375 2.558594 18.46875 2.71875 C 19.085938 2.992188 19.667969 3.328125 20.222656 3.714844 C 20.507812 3.914062 20.78125 4.132812 21.054688 4.34375 C 21.453125 4.65625 21.816406 5.011719 22.164062 5.378906 C 22.390625 5.617188 22.605469 5.867188 22.804688 6.125 C 23.058594 6.453125 23.292969 6.792969 23.535156 7.132812 Z M 23.535156 7.132812 "/>
<path style=" stroke:none;fill-rule:nonzero;fill:rgb(100%,100%,100%);fill-opacity:1;" d="M 6.246094 21.128906 C 6.371094 20.742188 6.519531 20.371094 6.703125 20.015625 C 6.929688 19.585938 7.191406 19.179688 7.496094 18.796875 C 7.75 18.476562 8.03125 18.179688 8.332031 17.910156 C 8.621094 17.648438 8.933594 17.414062 9.246094 17.183594 C 9.601562 16.921875 9.988281 16.710938 10.386719 16.523438 C 10.890625 16.289062 11.414062 16.109375 11.964844 16.007812 C 12.230469 15.960938 12.496094 15.902344 12.761719 15.886719 C 13.121094 15.859375 13.480469 15.851562 13.835938 15.871094 C 14.378906 15.898438 14.917969 15.984375 15.449219 16.117188 C 15.855469 16.21875 16.25 16.351562 16.632812 16.515625 C 17.074219 16.707031 17.496094 16.929688 17.886719 17.210938 C 18.113281 17.375 18.332031 17.550781 18.546875 17.734375 C 18.710938 17.875 18.871094 18.027344 19.015625 18.191406 C 19.246094 18.453125 19.476562 18.722656 19.683594 19.003906 C 19.941406 19.347656 20.15625 19.71875 20.355469 20.097656 C 20.648438 20.648438 20.867188 21.226562 20.988281 21.839844 C 21.03125 22.046875 21.070312 22.257812 21.09375 22.46875 C 21.101562 22.566406 21.058594 22.671875 20.972656 22.734375 C 20.613281 22.996094 20.261719 23.265625 19.890625 23.511719 C 19.628906 23.6875 19.347656 23.839844 19.074219 23.996094 C 18.625 24.25 18.152344 24.453125 17.671875 24.632812 C 17.230469 24.796875 16.785156 24.9375 16.324219 25.042969 C 16.011719 25.113281 15.691406 25.175781 15.371094 25.226562 C 15.101562 25.269531 14.824219 25.292969 14.550781 25.324219 C 14.363281 25.34375 14.171875 25.359375 13.980469 25.371094 C 13.8125 25.378906 13.640625 25.390625 13.472656 25.382812 C 13.179688 25.371094 12.886719 25.347656 12.597656 25.324219 C 12.386719 25.304688 12.175781 25.285156 11.964844 25.257812 C 11.761719 25.234375 11.558594 25.203125 11.359375 25.164062 C 11.074219 25.105469 10.785156 25.046875 10.503906 24.972656 C 9.996094 24.84375 9.5 24.6875 9.019531 24.484375 C 8.707031 24.351562 8.394531 24.214844 8.09375 24.058594 C 7.757812 23.882812 7.433594 23.691406 7.117188 23.492188 C 6.855469 23.328125 6.605469 23.144531 6.355469 22.964844 C 6.246094 22.886719 6.136719 22.808594 6.042969 22.71875 C 5.929688 22.605469 5.933594 22.453125 5.964844 22.304688 C 6.011719 22.078125 6.054688 21.847656 6.105469 21.621094 C 6.144531 21.457031 6.199219 21.296875 6.246094 21.128906 Z M 6.246094 21.128906 "/>
<path style=" stroke:none;fill-rule:nonzero;fill:rgb(100%,100%,100%);fill-opacity:1;" d="M 15.953125 13.394531 C 15.761719 13.511719 15.582031 13.648438 15.386719 13.742188 C 15.136719 13.859375 14.875 13.957031 14.613281 14.042969 C 14.308594 14.140625 13.992188 14.171875 13.675781 14.191406 C 13.324219 14.214844 12.984375 14.171875 12.644531 14.101562 C 12.257812 14.023438 11.894531 13.878906 11.546875 13.691406 C 11.304688 13.554688 11.074219 13.398438 10.863281 13.214844 C 10.546875 12.941406 10.273438 12.632812 10.050781 12.277344 C 9.796875 11.867188 9.625 11.425781 9.519531 10.957031 C 9.441406 10.597656 9.429688 10.234375 9.445312 9.871094 C 9.460938 9.582031 9.507812 9.289062 9.601562 9.015625 C 9.691406 8.757812 9.789062 8.503906 9.90625 8.257812 C 10.035156 7.980469 10.214844 7.730469 10.414062 7.496094 C 10.71875 7.144531 11.066406 6.839844 11.46875 6.605469 C 11.867188 6.371094 12.296875 6.203125 12.75 6.121094 C 13.03125 6.066406 13.308594 6.035156 13.59375 6.042969 C 14.085938 6.058594 14.566406 6.15625 15.027344 6.339844 C 15.378906 6.484375 15.703125 6.671875 16 6.902344 C 16.320312 7.152344 16.605469 7.433594 16.828125 7.773438 C 16.953125 7.960938 17.078125 8.148438 17.179688 8.351562 C 17.359375 8.703125 17.484375 9.078125 17.539062 9.472656 C 17.566406 9.652344 17.578125 9.835938 17.585938 10.015625 C 17.617188 10.515625 17.53125 11 17.367188 11.46875 C 17.214844 11.90625 16.996094 12.300781 16.703125 12.660156 C 16.484375 12.933594 16.234375 13.171875 15.953125 13.394531 Z M 15.953125 13.394531 "/>
</g>
</svg>
